<?xml version="1.0" standalone="no"?>
<!DOCTYPE svg PUBLIC "-//W3C//DTD SVG 20010904//EN"
 "http://www.w3.org/TR/2001/REC-SVG-20010904/DTD/svg10.dtd">
<svg version="1.0" xmlns="http://www.w3.org/2000/svg"
 width="512.000000pt" height="512.000000pt" viewBox="0 0 512.000000 512.000000"
 preserveAspectRatio="xMidYMid meet">
<metadata>
Created by potrace 1.14, written by Peter Selinger 2001-2017
</metadata>
<g transform="translate(0.000000,512.000000) scale(0.100000,-0.100000)"
fill="#000000" stroke="none">
<path d="M2370 5114 c-8 -1 -55 -8 -105 -14 -500 -65 -954 -361 -1238 -807
-114 -178 -204 -412 -237 -616 -5 -34 -13 -73 -16 -87 -4 -14 -8 -232 -10
-485 -2 -358 0 -479 11 -545 48 -293 162 -518 365 -721 94 -94 145 -135 249
-198 149 -90 351 -160 511 -177 36 -4 72 -8 80 -9 9 -1 17 -16 20 -41 l5 -39
-145 -42 c-814 -234 -1218 -353 -1257 -369 -139 -58 -258 -209 -280 -354 -5
-30 -9 -179 -8 -330 l0 -275 75 -3 75 -3 0 263 c0 145 3 287 7 316 16 102 80
191 171 236 28 14 171 60 317 102 227 65 910 262 1123 325 37 11 67 25 68 32
0 7 1 94 1 195 1 100 2 182 3 182 2 0 20 -7 41 -16 197 -83 440 -91 654 -23
52 17 100 32 106 35 8 3 10 -226 10 -803 -1 -444 1 -816 3 -825 3 -15 15 -18
76 -18 l73 0 0 1386 0 1386 -25 92 c-30 114 -125 309 -195 401 -149 197 -370
355 -598 428 -158 50 -240 59 -518 61 l-202 1 0 -645 c1 -521 4 -661 16 -729
43 -247 160 -444 363 -611 39 -33 42 -39 43 -85 0 -78 -1 -85 -14 -80 -7 2
-35 6 -63 9 -105 10 -199 35 -315 84 -85 36 -182 89 -188 104 -2 4 -8 8 -14 8
-15 0 -113 82 -177 149 -138 144 -246 340 -286 521 -8 36 -18 79 -22 95 -9 43
-13 878 -3 950 15 114 21 150 41 230 132 528 524 954 1039 1128 58 20 119 38
135 41 202 37 257 43 399 40 83 -1 160 -4 171 -7 11 -3 43 -8 70 -11 64 -9
218 -51 301 -82 215 -81 438 -231 593 -398 20 -21 43 -46 52 -55 8 -9 36 -43
61 -76 175 -232 289 -522 316 -805 4 -41 7 -852 7 -1803 l0 -1727 78 0 77 0
-3 1777 c-1 978 -6 1787 -9 1798 -3 11 -9 43 -12 70 -4 28 -18 93 -31 145 -59
238 -153 433 -307 640 -54 73 -218 245 -275 288 -15 12 -50 39 -78 60 -208
158 -474 270 -760 319 -76 13 -368 25 -415 17z m-260 -1530 c332 -58 612 -267
763 -569 25 -49 50 -108 57 -130 6 -22 16 -56 22 -75 7 -22 11 -213 13 -512
l2 -477 -62 -29 c-180 -87 -417 -99 -615 -32 -61 20 -181 81 -207 104 -6 6
-33 29 -60 51 -93 75 -191 212 -234 325 -55 146 -58 179 -59 791 l-1 568 33 3
c75 7 259 -2 348 -18z"/>
<path d="M3747 2550 c-11 -4 -13 -262 -13 -1277 l0 -1273 76 0 75 0 0 1275 0
1275 -25 1 c-14 0 -42 1 -63 2 -21 1 -44 0 -50 -3z"/>
<path d="M3360 875 l0 -875 75 0 75 0 0 875 0 875 -75 0 -75 0 0 -875z"/>
<path d="M4498 928 c-37 -82 -42 -102 -29 -106 30 -10 99 -72 128 -116 52 -77
56 -105 57 -416 l1 -285 76 -3 76 -3 -2 293 c-1 161 -5 311 -10 333 -17 84
-84 201 -145 253 -28 24 -119 82 -128 82 -6 0 -16 -15 -24 -32z"/>
</g>
</svg>
